<svg width="13" height="16" viewBox="0 0 13 16" fill="none" xmlns="http://www.w3.org/2000/svg">
<path d="M5.97496 7.93834C6.91698 7.93834 7.73269 7.57231 8.39918 6.85014C9.06567 6.12808 9.40353 5.2446 9.40353 4.22394C9.40353 3.20362 9.06567 2.32002 8.39907 1.59773C7.73247 0.875794 6.91687 0.509766 5.97496 0.509766C5.03284 0.509766 4.21734 0.875794 3.55085 1.59785C2.88436 2.31991 2.54639 3.2035 2.54639 4.22394C2.54639 5.2446 2.88436 6.1282 3.55096 6.85026C4.21756 7.5722 5.03316 7.93834 5.97496 7.93834Z" fill="#328FC7"/>
<path d="M12.2317 12.3629C12.2122 12.0614 12.173 11.7325 12.1151 11.3851C12.0567 11.0352 11.9816 10.7044 11.8916 10.402C11.7987 10.0895 11.6722 9.78086 11.516 9.48511C11.3538 9.17815 11.1633 8.91085 10.9495 8.6909C10.726 8.46079 10.4523 8.27578 10.1358 8.14084C9.82045 8.0066 9.47094 7.93859 9.09708 7.93859C8.95025 7.93859 8.80825 8.00341 8.53402 8.1955C8.36525 8.31392 8.16784 8.45087 7.94749 8.60235C7.75907 8.73151 7.50383 8.85253 7.18856 8.96209C6.88097 9.06917 6.56866 9.12348 6.26042 9.12348C5.95217 9.12348 5.63997 9.06917 5.33205 8.96209C5.01711 8.85264 4.76187 8.73163 4.57367 8.60247C4.35541 8.45241 4.15789 8.31545 3.98659 8.19538C3.71269 8.00329 3.57058 7.93848 3.42376 7.93848C3.04978 7.93848 2.70038 8.0066 2.38511 8.14096C2.06885 8.27567 1.79506 8.46067 1.57131 8.69102C1.35766 8.91109 1.16705 9.17826 1.00508 9.48511C0.848924 9.78086 0.722509 10.0894 0.629453 10.4021C0.53958 10.7045 0.464411 11.0352 0.406032 11.3851C0.348201 11.732 0.308916 12.061 0.289493 12.3633C0.270399 12.6594 0.260742 12.9667 0.260742 13.2771C0.260742 14.0849 0.499417 14.7388 0.970072 15.2211C1.43491 15.697 2.04998 15.9385 2.79793 15.9385H9.72355C10.4715 15.9385 11.0864 15.6972 11.5513 15.2211C12.0221 14.7392 12.2607 14.0851 12.2607 13.277C12.2606 12.9652 12.2509 12.6576 12.2317 12.3629Z" fill="#328FC7"/>
</svg>
